<svg id="Layer_1" data-name="Layer 1" xmlns="http://www.w3.org/2000/svg" viewBox="0 0 354.33 411.48"><defs><style>.cls-1{fill:#38bb50;}.cls-2{fill:#4581f5;}.cls-3{fill:#f6c200;}.cls-4{fill:#e03033;}</style></defs><polygon class="cls-1" points="13.54 0 13.69 0 13.72 0.32 13.54 0 13.54 0"/><path class="cls-2" d="M806.52,340.29q1.58,0,3.12.09c73.82,18.13,146.69,36.15,220.39,54.26,17.63,4.48,35.41,8.51,53,13.23-7.83,9.46-16.6,18.19-24.77,27.36-30.94,33.43-61.44,67.27-92.44,100.64a140.92,140.92,0,0,1-9.53-11.16q-71-87.39-142.6-174.34c-2.43-3.12-5.4-6.23-7.12-9.76l0-.32Z" transform="translate(-792.83 -340.29)"/><path class="cls-1" d="M792.83,354.91c1.07,1.19,2.11,2.39,3.15,3.59l-2.12-.89.73,3.81c-.71-2.13-1.26-4.31-1.76-6.51Z" transform="translate(-792.83 -340.29)"/><path class="cls-3" d="M793.86,357.61l2.12.89c2.9,3.28,5.59,6.75,8.38,10.12q64.27,78.74,128.77,157.27c7.39,8.71,14.31,17.82,21.82,26.43-2.49,23.55-5.05,47.1-7.24,70.68-2.78,22.3-4.91,44.66-7,67q-3.3,30.86-6.41,61.74l-1.45-.27c-46-129.72-92.26-260.31-138.26-390.08l-.73-3.81Z" transform="translate(-792.83 -340.29)"/><path class="cls-1" d="M1103,414.86c2.69,1.61,5.26,3.52,7.83,5.35,12.11,8.65,24.38,17.1,36.34,25.94-1.83,1.2-3.69,2.35-5.62,3.39-40.1,20.75-79.84,42.2-119.82,63.21-5.19,2.77-10.26,5.71-15.75,7.88,1.72-2.17,3.42-4.32,5.26-6.4,26.08-28.23,52.07-56.63,78.1-84.9,4.45-4.9,8.83-9.95,13.66-14.47Z" transform="translate(-792.83 -340.29)"/><path class="cls-4" d="M1143.76,470.27a74.61,74.61,0,0,1-7.42,12.1c-41.17,60.55-81.9,121.37-123.12,181.89-18.45,27.5-37.24,54.81-55.58,82.36a10.47,10.47,0,0,1-3,2.79l-.22.1c-.9-4.69.09-8.87.44-13.52,1.62-19.2,4.08-38.32,5.79-57.5,2.87-28.18,6-56.31,8.59-84.52,1.43-11.43,2.39-22.89,3.44-34.35,10.15-4.58,19.63-10.09,29.52-15.23,42.51-22.56,85.15-44.9,127.63-67.53a114.81,114.81,0,0,1,10.64-5.33c1.09-.43,2.19-.85,3.28-1.26Z" transform="translate(-792.83 -340.29)"/><polygon class="cls-1" points="161.6 409.22 161.82 409.12 161.61 409.27 161.6 409.22 161.6 409.22"/></svg>